<svg width="2960" height="1539" viewBox="0 0 2960 1539" fill="none" xmlns="http://www.w3.org/2000/svg">
<path d="M476 1316H431V1115H601.1V1155.5H476V1200.8H596.6V1241H476V1316ZM665.258 1316H620.258V1115H665.258V1316ZM768.913 1319C717.613 1319 683.113 1288.4 683.113 1241C683.113 1193 717.613 1162.7 768.913 1162.7C820.213 1162.7 854.713 1193 854.713 1241C854.713 1288.4 820.213 1319 768.913 1319ZM768.913 1279.1C799.213 1279.1 810.013 1267.4 810.013 1241C810.013 1214.6 799.213 1202.3 768.913 1202.3C738.313 1202.3 727.813 1214.6 727.813 1241C727.813 1267.4 738.313 1279.1 768.913 1279.1ZM958.29 1316H902.19L861.09 1165.7H907.59L925.29 1234.4L931.59 1281.2H934.59L946.59 1229.9L969.39 1165.7H1027.29L1049.79 1229.9L1061.79 1281.2H1064.79L1071.39 1234.4L1088.79 1165.7H1134.69L1092.09 1316H1035.99L1010.19 1243.7L999.09 1202.3H995.79L984.39 1243.7L958.29 1316ZM1192.02 1316H1133.22L1211.52 1216.7V1213.4L1133.22 1115H1192.02L1248.42 1186.7H1251.72L1306.02 1115H1364.82L1286.82 1214.3V1217.6L1364.82 1316H1306.02L1249.92 1243.4H1246.62L1192.02 1316ZM1430.14 1316H1372.24V1263.5H1430.14V1316ZM1508.12 1316H1463.12V1202.9H1441.82V1165.7H1464.02C1468.82 1135.4 1495.22 1115 1541.42 1115H1554.62V1147.7H1534.22C1514.42 1147.7 1505.12 1151 1506.32 1165.7H1554.62V1202.9H1508.12V1316ZM1614.62 1150.4H1569.62V1115H1614.62V1150.4ZM1614.62 1316H1569.62V1165.7H1614.62V1316ZM1683.32 1316H1638.32V1165.7H1680.02V1211.9H1682.72C1686.62 1186.7 1704.62 1162.7 1743.92 1162.7C1785.02 1162.7 1804.52 1189.1 1804.52 1222.4V1316H1759.52V1237.4C1759.52 1213.4 1749.62 1203.2 1722.02 1203.2C1693.52 1203.2 1683.32 1214.6 1683.32 1240.1V1316ZM1873.49 1319C1841.09 1319 1821.59 1304 1821.59 1278.8C1821.59 1256.6 1838.09 1242.8 1870.19 1239.5L1934.69 1232.9V1227.2C1934.69 1207.7 1925.99 1202.3 1901.99 1202.3C1879.19 1202.3 1869.89 1208.3 1869.89 1225.4V1226.6H1824.59V1225.7C1824.59 1188.5 1855.79 1162.7 1905.29 1162.7C1955.39 1162.7 1979.09 1188.5 1979.09 1227.8V1316H1937.09V1281.5H1934.69C1927.79 1304.9 1906.79 1319 1873.49 1319ZM1866.89 1275.8C1866.89 1283.9 1873.19 1287.2 1886.39 1287.2C1916.99 1287.2 1933.49 1280 1934.69 1258.7L1882.49 1264.7C1871.69 1265.6 1866.89 1268.6 1866.89 1275.8ZM2046.9 1316H2001.9V1165.7H2043.6V1211.9H2046.3C2050.2 1186.7 2068.2 1162.7 2107.5 1162.7C2148.6 1162.7 2168.1 1189.1 2168.1 1222.4V1316H2123.1V1237.4C2123.1 1213.4 2113.2 1203.2 2085.6 1203.2C2057.1 1203.2 2046.9 1214.6 2046.9 1240.1V1316ZM2270.96 1319C2219.36 1319 2186.36 1288.4 2186.36 1241C2186.36 1193 2219.36 1162.7 2270.96 1162.7C2319.26 1162.7 2352.26 1188.5 2352.26 1227.5V1231.7H2307.56V1229.3C2307.56 1210.1 2293.46 1203.2 2270.06 1203.2C2243.36 1203.2 2231.06 1213.1 2231.06 1241C2231.06 1268.6 2243.36 1278.5 2270.06 1278.5C2293.46 1278.5 2307.56 1271.6 2307.56 1252.4V1250H2352.26V1254.2C2352.26 1292.9 2319.26 1319 2270.96 1319ZM2451.43 1319C2401.33 1319 2367.13 1294.4 2367.13 1241C2367.13 1193 2401.03 1162.7 2450.53 1162.7C2499.73 1162.7 2532.43 1188.5 2532.43 1235.6C2532.43 1241 2531.83 1244.9 2531.23 1250H2408.83C2410.03 1273.1 2420.83 1283 2449.93 1283C2476.63 1283 2485.93 1276.1 2485.93 1263.2V1260.2H2530.93V1263.5C2530.93 1296.2 2499.13 1319 2451.43 1319ZM2449.63 1197.8C2422.93 1197.8 2411.53 1206.8 2409.43 1226.3H2489.23C2488.03 1206.5 2476.03 1197.8 2449.63 1197.8Z" fill="#1E1E1E"/>
<g clip-path="url(#clip0_59_201)">
<path d="M1631.03 598.71H1742.17C1758.76 598.71 1760.24 600.193 1756.1 616.802C1747.8 648.833 1742.17 681.458 1721.42 709.041C1702.45 734.548 1679.04 748.487 1646.15 747.598C1599.03 747.894 1548.64 747.894 1500.93 746.708C1432.77 743.742 1398.98 785.561 1379.72 833.905C1374.68 846.362 1372.31 859.412 1367.27 871.868C1351.86 910.722 1329.64 927.627 1284.59 929.11C1240.13 930.593 1192.72 928.814 1146.78 929.11C1129.59 929.11 1126.93 926.737 1131.07 910.722C1137.59 885.512 1143.23 859.708 1152.12 835.091C1166.64 794.755 1187.68 781.112 1230.35 780.816C1263.55 780.519 1296.44 779.926 1329.64 780.519C1367.57 781.112 1396.91 765.096 1416.76 733.954C1427.43 717.049 1434.25 697.771 1442.25 679.382C1446.1 670.781 1447.88 661.29 1451.44 652.689C1468.63 612.056 1489.37 598.413 1533.23 598.71C1565.83 598.71 1598.43 598.71 1631.03 598.71Z" fill="#1E1E1E"/>
<path d="M1630.74 480.667C1609.99 480.667 1589.25 480.667 1568.5 480.667C1504.49 480.667 1462.4 512.996 1444.62 574.39C1440.18 589.812 1434.25 605.531 1425.95 619.174C1409.06 647.35 1383.87 662.18 1349.79 661.883C1304.44 661.29 1258.81 661.587 1213.46 661.883C1200.72 661.883 1196.27 658.324 1200.13 645.274C1207.83 619.174 1213.17 592.481 1222.06 566.975C1235.39 529.308 1257.03 514.775 1297.04 513.885C1324.3 513.292 1351.27 514.182 1378.53 513.589C1393.35 513.292 1408.17 512.996 1422.69 510.03C1453.22 503.801 1477.81 488.082 1491.74 459.313C1503.6 434.993 1514.86 410.079 1524.94 384.869C1539.75 346.906 1567.02 329.407 1607.03 329.703C1675.78 330 1744.24 329.703 1813 329.703C1822.18 329.703 1831.96 330.593 1828.41 342.753C1817.74 377.454 1812.11 414.231 1786.03 442.704C1763.5 467.321 1735.94 480.371 1702.16 480.371C1678.15 480.667 1654.44 480.667 1630.74 480.667Z" fill="#1E1E1E"/>
<path d="M1450.25 336.228V335.932V335.635C1450.25 332.669 1447.59 330 1444.33 330C1443.73 330 1442.84 330 1442.25 330C1441.07 330 1439.88 330 1438.4 330C1436.92 330 1435.73 330 1434.25 330C1399.58 330 1366.98 330 1334.38 330.297C1324 330.297 1315.11 333.262 1307.41 338.008C1295.85 344.236 1287.85 355.507 1283.4 370.929C1281.03 378.344 1278.96 386.055 1276.88 394.063C1273.92 404.444 1270.96 415.121 1267.99 425.502C1267.4 426.985 1267.4 428.468 1267.4 429.654V429.951V430.247C1267.4 433.213 1270.07 435.882 1273.33 435.882C1273.92 435.882 1274.81 435.882 1275.4 435.882C1276.59 435.882 1277.77 435.882 1279.25 435.882C1280.74 435.882 1281.92 435.882 1283.4 435.882C1318.37 435.882 1350.97 436.179 1383.57 435.882C1393.94 435.882 1402.84 432.916 1410.54 428.171C1422.1 421.943 1430.1 410.672 1434.55 395.25C1436.92 387.835 1438.99 380.124 1441.07 372.116C1444.03 361.735 1446.99 351.058 1449.96 340.677C1450.25 338.898 1450.25 337.415 1450.25 336.228Z" fill="#1890FF"/>
</g>
<defs>
<clipPath id="clip0_59_201">
<rect width="700" height="600" fill="white" transform="translate(1129 330)"/>
</clipPath>
</defs>
</svg>
