<svg width="484" height="128" viewBox="0 0 484 128" fill="none" xmlns="http://www.w3.org/2000/svg">
<path d="M111.766 50.7434L96.7836 20.4297C96.0344 18.8978 93.8941 19.0805 93.3858 20.7107L79.7012 63.8274C77.8418 69.6878 70.1902 70.2781 67.5148 64.7831L45.697 19.7832C43.035 14.3023 35.4102 14.8785 33.524 20.6967L16.0805 74.6066C15.92 75.0985 15.9601 75.6325 16.1742 76.1103L31.1965 107.675C31.9322 109.235 34.0992 109.066 34.6209 107.408L48.2788 63.3918C50.1114 57.4752 57.8433 56.8709 60.4919 62.4361L82.2428 108.139C84.8781 113.676 92.5832 113.114 94.4426 107.225L111.886 52.2612C112.047 51.7553 112.006 51.2213 111.766 50.7434Z" fill="#EC6539"/>
<path d="M431.082 85.6776L440.922 82.9496C441.312 87.2365 444.527 91.0362 450.568 91.0362C455.244 91.0362 457.68 88.5031 457.68 85.5802C457.68 83.047 455.926 81.0985 452.127 80.319L445.112 78.7602C436.733 76.909 432.349 71.453 432.349 64.9253C432.349 56.6438 439.948 49.6289 449.788 49.6289C463.039 49.6289 467.326 58.2027 468.105 62.8792L458.557 65.6072C458.167 62.8792 456.121 58.4949 449.788 58.4949C445.794 58.4949 442.968 61.0281 442.968 63.951C442.968 66.4841 444.82 68.3353 447.742 68.9198L454.952 70.3813C463.916 72.3298 468.592 77.7859 468.592 84.8008C468.592 92.0105 462.746 99.9997 450.665 99.9997C436.928 99.9997 431.667 91.0362 431.082 85.6776Z" fill="#171717"/>
<path d="M393.682 69.6018H416.967C416.773 64.0484 413.07 59.0795 405.276 59.0795C398.164 59.0795 394.072 64.5355 393.682 69.6018ZM418.234 81.9753L427.782 84.9956C425.249 93.2771 417.747 99.9997 406.348 99.9997C393.487 99.9997 382.088 90.6465 382.088 74.5707C382.088 59.5667 393.195 49.6289 405.179 49.6289C419.793 49.6289 428.367 59.2744 428.367 74.2784C428.367 76.1296 428.172 77.6884 428.074 77.8833H393.39C393.682 85.093 399.333 90.2568 406.348 90.2568C413.168 90.2568 416.675 86.6519 418.234 81.9753Z" fill="#171717"/>
<path d="M375.11 98.5386H363.809V28H375.11V98.5386Z" fill="#171717"/>
<path d="M316.696 74.6685C316.696 83.7294 321.763 89.7699 329.459 89.7699C336.864 89.7699 342.028 83.6319 342.028 74.571C342.028 65.5101 336.961 59.8593 329.557 59.8593C322.152 59.8593 316.696 65.6076 316.696 74.6685ZM352.94 28V89.8674C352.94 94.1543 353.33 97.7591 353.427 98.5386H342.612C342.418 97.4668 342.125 94.3491 342.125 92.4005C339.884 96.3951 334.915 99.7077 328.193 99.7077C314.553 99.7077 305.395 88.9905 305.395 74.6685C305.395 61.0284 314.65 49.8241 327.998 49.8241C336.28 49.8241 340.469 53.6238 341.93 56.6441V28H352.94Z" fill="#171717"/>
<path d="M277.421 89.8671C284.436 89.8671 290.672 84.7033 290.672 74.7656C290.672 64.9253 284.436 59.8589 277.421 59.8589C270.504 59.8589 264.171 64.9253 264.171 74.7656C264.171 84.6059 270.504 89.8671 277.421 89.8671ZM277.421 49.6289C291.646 49.6289 302.071 60.2487 302.071 74.7656C302.071 89.3799 291.646 99.9997 277.421 99.9997C263.294 99.9997 252.869 89.3799 252.869 74.7656C252.869 60.2487 263.294 49.6289 277.421 49.6289Z" fill="#171717"/>
<path d="M224.898 89.8671C231.913 89.8671 238.148 84.7033 238.148 74.7656C238.148 64.9253 231.913 59.8589 224.898 59.8589C217.98 59.8589 211.647 64.9253 211.647 74.7656C211.647 84.6059 217.98 89.8671 224.898 89.8671ZM224.898 49.6289C239.122 49.6289 249.547 60.2487 249.547 74.7656C249.547 89.3799 239.122 99.9997 224.898 99.9997C210.771 99.9997 200.346 89.3799 200.346 74.7656C200.346 60.2487 210.771 49.6289 224.898 49.6289Z" fill="#171717"/>
<path d="M163.302 71.1609V98.5385H152V51.0906H163.009V57.4234C166.127 51.9674 171.778 49.7266 177.039 49.7266C188.633 49.7266 194.187 58.1055 194.187 68.5303V98.5385H182.885V70.4789C182.885 64.6332 180.254 59.9566 173.142 59.9566C166.712 59.9566 163.302 64.9255 163.302 71.1609Z" fill="#171717"/>
</svg>
