<svg xmlns="http://www.w3.org/2000/svg" xmlns:xlink="http://www.w3.org/1999/xlink" width="1080" zoomAndPan="magnify" viewBox="0 0 810 809.999993" height="1080" preserveAspectRatio="xMidYMid meet" version="1.2"><defs><clipPath id="e1a56e944a"><path d="M 188 594 L 572 594 L 572 759.761719 L 188 759.761719 Z M 188 594 "/></clipPath><clipPath id="f93fc2a91f"><path d="M 104.964844 30.855469 L 672 30.855469 L 672 627 L 104.964844 627 Z M 104.964844 30.855469 "/></clipPath></defs><g id="3affc2b666"><g clip-rule="nonzero" clip-path="url(#e1a56e944a)"><path style=" stroke:none;fill-rule:nonzero;fill:#101010;fill-opacity:1;" d="M 199.300781 594.984375 L 188.070312 605.960938 L 199.386719 595.066406 Z M 540.082031 650.300781 C 535.890625 646.273438 529.355469 646.191406 524.914062 649.878906 C 482.585938 684.578125 429.703125 701.925781 374.46875 698.992188 C 328.289062 696.5625 284.121094 679.464844 249.003906 650.96875 C 244.476562 647.28125 238.023438 647.363281 233.832031 651.472656 L 206.425781 677.957031 C 201.566406 682.648438 201.984375 690.527344 207.179688 694.886719 C 252.773438 733.019531 310.605469 756.070312 371.367188 759.335938 C 376.480469 759.589844 381.679688 759.757812 386.789062 759.757812 C 453.421875 759.757812 516.449219 736.542969 567.238281 693.460938 C 572.269531 689.1875 572.351562 681.394531 567.574219 676.785156 L 540.25 650.382812 L 540.082031 650.382812 Z M 199.300781 594.730469 L 188.070312 605.710938 L 199.386719 594.816406 Z M 199.300781 594.730469 "/><path style=" stroke:none;fill-rule:nonzero;fill:#fb5a1f;fill-opacity:1;" d="M 199.300781 594.984375 L 188.070312 605.960938 L 199.386719 595.066406 Z M 540.082031 650.300781 C 535.890625 646.273438 529.355469 646.191406 524.914062 649.878906 C 482.585938 684.578125 429.703125 701.925781 374.46875 698.992188 C 328.289062 696.5625 284.121094 679.464844 249.003906 650.96875 C 244.476562 647.28125 238.023438 647.363281 233.832031 651.472656 L 206.425781 677.957031 C 201.566406 682.648438 201.984375 690.527344 207.179688 694.886719 C 252.773438 733.019531 310.605469 756.070312 371.367188 759.335938 C 376.480469 759.589844 381.679688 759.757812 386.789062 759.757812 C 453.421875 759.757812 516.449219 736.542969 567.238281 693.460938 C 572.269531 689.1875 572.351562 681.394531 567.574219 676.785156 L 540.25 650.382812 L 540.082031 650.382812 Z M 199.300781 594.730469 L 188.070312 605.710938 L 199.386719 594.816406 Z M 199.300781 594.730469 "/></g><g clip-rule="nonzero" clip-path="url(#f93fc2a91f)"><path style=" stroke:none;fill-rule:nonzero;fill:#101010;fill-opacity:1;" d="M 668.148438 439.59375 C 654.90625 362.066406 632.277344 325.273438 606.128906 290.574219 L 588.023438 265.515625 C 572.601562 244.144531 540.082031 246.238281 527.511719 269.371094 L 521.980469 279.59375 C 504.632812 298.789062 503.121094 301.636719 486.273438 317.648438 C 478.3125 325.191406 473.953125 328.375 472.195312 329.464844 C 471.273438 329.632812 470.769531 329.632812 470.6875 329.714844 C 464.652344 324.519531 459.875 295.015625 462.890625 267.527344 L 463.058594 265.011719 C 464.652344 210.871094 474.289062 157.3125 389.390625 47.4375 C 371.199219 20.03125 328.875 28.160156 322.171875 60.34375 C 318.566406 77.859375 314.460938 94.035156 310.351562 104.679688 C 296.273438 141.054688 271.632812 187.652344 229.390625 229.058594 C 203.828125 254.199219 183.210938 278.253906 166.613281 302.8125 C 145.160156 334.492188 130.40625 360.390625 118.507812 399.113281 C 94.453125 477.5625 102.5 550.894531 142.226562 617.777344 C 148.429688 628.257812 163.011719 630.015625 171.8125 621.550781 L 178.515625 615.097656 L 187.988281 606.046875 L 199.21875 595.066406 L 297.695312 499.183594 C 300.800781 496.167969 305.742188 496.25 308.761719 499.351562 L 372.960938 566.402344 C 380.753906 574.53125 393.664062 574.53125 401.457031 566.402344 L 465.742188 499.351562 C 468.757812 496.25 473.703125 496.167969 476.804688 499.183594 L 550.980469 571.347656 L 556.089844 576.292969 L 575.03125 594.648438 L 595.148438 614.089844 L 602.523438 621.214844 C 611.238281 629.679688 625.738281 628.003906 632.027344 617.609375 C 665.464844 562.714844 678.375 500.777344 667.980469 439.59375 Z M 602.691406 537.152344 L 485.519531 423.25 C 476.890625 414.785156 462.976562 415.035156 454.59375 423.753906 L 390.726562 490.300781 C 388.886719 492.226562 385.785156 492.226562 383.855469 490.300781 L 319.992188 423.753906 C 311.609375 415.035156 297.78125 414.785156 289.066406 423.25 L 172.566406 536.730469 C 162.003906 499.015625 163.261719 459.289062 176.335938 416.878906 C 186.058594 385.117188 197.542969 364.917969 216.652344 336.757812 C 231.066406 315.550781 249.085938 294.429688 271.714844 272.304688 C 320.328125 224.699219 348.90625 171.980469 365.667969 129.738281 C 367.511719 124.960938 374.132812 124.792969 376.480469 129.40625 C 404.640625 185.054688 403.804688 225.453125 402.714844 262.164062 C 401.039062 278.507812 396.511719 345.054688 430.875 375.308594 C 446.210938 388.71875 466.664062 393.246094 488.539062 387.882812 L 489.796875 387.546875 C 500.523438 384.363281 511.839844 376.566406 527.847656 361.480469 C 536.5625 353.183594 544.859375 344.300781 552.652344 334.660156 C 555.253906 331.476562 560.195312 331.726562 562.292969 335.164062 C 580.898438 365.921875 601.097656 407.074219 608.390625 449.734375 C 613.335938 478.984375 611.15625 508.574219 602.523438 537.152344 Z M 602.691406 537.152344 "/><path style=" stroke:none;fill-rule:nonzero;fill:#fb5a1f;fill-opacity:1;" d="M 668.148438 439.59375 C 654.90625 362.066406 632.277344 325.273438 606.128906 290.574219 L 588.023438 265.515625 C 572.601562 244.144531 540.082031 246.238281 527.511719 269.371094 L 521.980469 279.59375 C 504.632812 298.789062 503.121094 301.636719 486.273438 317.648438 C 478.3125 325.191406 473.953125 328.375 472.195312 329.464844 C 471.273438 329.632812 470.769531 329.632812 470.6875 329.714844 C 464.652344 324.519531 459.875 295.015625 462.890625 267.527344 L 463.058594 265.011719 C 464.652344 210.871094 474.289062 157.3125 389.390625 47.4375 C 371.199219 20.03125 328.875 28.160156 322.171875 60.34375 C 318.566406 77.859375 314.460938 94.035156 310.351562 104.679688 C 296.273438 141.054688 271.632812 187.652344 229.390625 229.058594 C 203.828125 254.199219 183.210938 278.253906 166.613281 302.8125 C 145.160156 334.492188 130.40625 360.390625 118.507812 399.113281 C 94.453125 477.5625 102.5 550.894531 142.226562 617.777344 C 148.429688 628.257812 163.011719 630.015625 171.8125 621.550781 L 178.515625 615.097656 L 187.988281 606.046875 L 199.21875 595.066406 L 297.695312 499.183594 C 300.800781 496.167969 305.742188 496.25 308.761719 499.351562 L 372.960938 566.402344 C 380.753906 574.53125 393.664062 574.53125 401.457031 566.402344 L 465.742188 499.351562 C 468.757812 496.25 473.703125 496.167969 476.804688 499.183594 L 550.980469 571.347656 L 556.089844 576.292969 L 575.03125 594.648438 L 595.148438 614.089844 L 602.523438 621.214844 C 611.238281 629.679688 625.738281 628.003906 632.027344 617.609375 C 665.464844 562.714844 678.375 500.777344 667.980469 439.59375 Z M 602.691406 537.152344 L 485.519531 423.25 C 476.890625 414.785156 462.976562 415.035156 454.59375 423.753906 L 390.726562 490.300781 C 388.886719 492.226562 385.785156 492.226562 383.855469 490.300781 L 319.992188 423.753906 C 311.609375 415.035156 297.78125 414.785156 289.066406 423.25 L 172.566406 536.730469 C 162.003906 499.015625 163.261719 459.289062 176.335938 416.878906 C 186.058594 385.117188 197.542969 364.917969 216.652344 336.757812 C 231.066406 315.550781 249.085938 294.429688 271.714844 272.304688 C 320.328125 224.699219 348.90625 171.980469 365.667969 129.738281 C 367.511719 124.960938 374.132812 124.792969 376.480469 129.40625 C 404.640625 185.054688 403.804688 225.453125 402.714844 262.164062 C 401.039062 278.507812 396.511719 345.054688 430.875 375.308594 C 446.210938 388.71875 466.664062 393.246094 488.539062 387.882812 L 489.796875 387.546875 C 500.523438 384.363281 511.839844 376.566406 527.847656 361.480469 C 536.5625 353.183594 544.859375 344.300781 552.652344 334.660156 C 555.253906 331.476562 560.195312 331.726562 562.292969 335.164062 C 580.898438 365.921875 601.097656 407.074219 608.390625 449.734375 C 613.335938 478.984375 611.15625 508.574219 602.523438 537.152344 Z M 602.691406 537.152344 "/></g></g></svg>