<svg width="30" height="30" viewBox="0 0 30 30" fill="none" xmlns="http://www.w3.org/2000/svg">
<mask id="mask0_93_2691" style="mask-type:luminance" maskUnits="userSpaceOnUse" x="0" y="0" width="30" height="30">
<path d="M29.6511 0.0313187H0V29.9687H29.6511V0.0313187Z" fill="white"/>
</mask>
<g mask="url(#mask0_93_2691)">
<path d="M26.0041 29.9683C25.3491 29.9683 24.6962 29.7822 24.1098 29.4134C20.6189 27.2134 17.1114 24.8252 13.7201 22.5173C11.35 20.9042 8.90035 19.2372 6.48161 17.6505C5.56436 17.0493 5.01445 16.0341 5.01112 14.9363C5.0078 13.8429 5.54776 12.83 6.45506 12.2265C8.88818 10.608 11.3478 9.018 13.7267 7.4787C17.1059 5.29304 20.6001 3.03252 24.0678 0.66189C25.1809 -0.0989579 26.5562 -0.176034 27.7457 0.457088C28.9251 1.08471 29.6543 2.30911 29.651 3.65243L29.5824 26.37C29.578 27.7012 28.8842 28.8772 27.7258 29.5168C27.1814 29.8175 26.5917 29.9672 26.0041 29.9672" fill="white"/>
<path d="M3.19327 27.1932C2.63782 27.1932 2.08017 27.0523 1.57562 26.7692C0.585334 26.2143 -0.00330543 25.2267 1.39642e-05 24.1255L0.0597631 5.85201C0.0630825 4.77845 0.637338 3.8062 1.59443 3.25016C2.62345 2.65337 3.89809 2.65667 4.92158 3.25786L19.8235 12.006C20.7573 12.5543 21.3261 13.5089 21.3448 14.5583C21.3636 15.6043 20.8315 16.5744 19.9219 17.1535L4.9603 26.6779C4.42256 27.0203 3.80847 27.1932 3.19327 27.1932Z" fill="#F7951E"/>
</g>
</svg>
