<svg width="30" height="21" viewBox="0 0 30 21" fill="none" xmlns="http://www.w3.org/2000/svg">
<path d="M18.3333 7.60001V3.81667C18.3333 2.64167 17.8 2.16667 16.475 2.16667H13.1083C11.7833 2.16667 11.25 2.64167 11.25 3.81667V7.59167C11.25 8.77501 11.7833 9.24167 13.1083 9.24167H16.475C17.8 9.25 18.3333 8.77501 18.3333 7.60001Z" stroke="#FAFAF9" stroke-width="1.5" stroke-linecap="round" stroke-linejoin="round"/>
<path d="M18.3333 16.975V13.6083C18.3333 12.2833 17.8 11.75 16.475 11.75H13.1083C11.7833 11.75 11.25 12.2833 11.25 13.6083V16.975C11.25 18.3 11.7833 18.8333 13.1083 18.8333H16.475C17.8 18.8333 18.3333 18.3 18.3333 16.975Z" stroke="#FAFAF9" stroke-width="1.5" stroke-linecap="round" stroke-linejoin="round"/>
<path d="M8.75 7.60001V3.81667C8.75 2.64167 8.21667 2.16667 6.89167 2.16667H3.525C2.2 2.16667 1.66667 2.64167 1.66667 3.81667V7.59167C1.66667 8.77501 2.2 9.24167 3.525 9.24167H6.89167C8.21667 9.25 8.75 8.77501 8.75 7.60001Z" stroke="#FAFAF9" stroke-width="1.5" stroke-linecap="round" stroke-linejoin="round"/>
<path d="M8.75 16.975V13.6083C8.75 12.2833 8.21667 11.75 6.89167 11.75H3.525C2.2 11.75 1.66667 12.2833 1.66667 13.6083V16.975C1.66667 18.3 2.2 18.8333 3.525 18.8333H6.89167C8.21667 18.8333 8.75 18.3 8.75 16.975Z" stroke="#FAFAF9" stroke-width="1.5" stroke-linecap="round" stroke-linejoin="round"/>
</svg>
