<svg width="20" height="21" viewBox="0 0 20 21" fill="none" xmlns="http://www.w3.org/2000/svg">
<path d="M10.7667 2.38333L16.1917 5.30833C16.825 5.64999 16.825 6.62499 16.1917 6.96666L10.7667 9.89166C10.2833 10.15 9.71667 10.15 9.23333 9.89166L3.80833 6.96666C3.175 6.62499 3.175 5.64999 3.80833 5.30833L9.23333 2.38333C9.71667 2.12499 10.2833 2.12499 10.7667 2.38333Z" stroke="#FAFAF9" stroke-width="1.5" stroke-linecap="round" stroke-linejoin="round"/>
<path d="M3.00833 8.94167L8.05 11.4667C8.675 11.7833 9.075 12.425 9.075 13.125V17.8917C9.075 18.5833 8.35 19.025 7.73334 18.7167L2.69167 16.1917C2.06667 15.875 1.66667 15.2333 1.66667 14.5333V9.76667C1.66667 9.075 2.39167 8.63333 3.00833 8.94167Z" stroke="#FAFAF9" stroke-width="1.5" stroke-linecap="round" stroke-linejoin="round"/>
<path d="M16.9917 8.94167L11.95 11.4667C11.325 11.7833 10.925 12.425 10.925 13.125V17.8917C10.925 18.5833 11.65 19.025 12.2667 18.7167L17.3083 16.1917C17.9333 15.875 18.3333 15.2333 18.3333 14.5333V9.76667C18.3333 9.075 17.6083 8.63333 16.9917 8.94167Z" stroke="#FAFAF9" stroke-width="1.5" stroke-linecap="round" stroke-linejoin="round"/>
</svg>
