<svg width="20" height="21" viewBox="0 0 20 21" fill="none" xmlns="http://www.w3.org/2000/svg">
<path d="M5.83333 7.16666H3.33333C2.41667 7.16666 1.66667 6.41666 1.66667 5.49999V3.83332C1.66667 2.91666 2.41667 2.16666 3.33333 2.16666H5.83333C6.75 2.16666 7.5 2.91666 7.5 3.83332V5.49999C7.5 6.41666 6.75 7.16666 5.83333 7.16666Z" stroke="#FAFAF9" stroke-width="1.5" stroke-linecap="round" stroke-linejoin="round"/>
<path d="M17.3333 6.33333H14.3333C13.7833 6.33333 13.3333 5.88332 13.3333 5.33332V4.00001C13.3333 3.45001 13.7833 3 14.3333 3H17.3333C17.8833 3 18.3333 3.45001 18.3333 4.00001V5.33332C18.3333 5.88332 17.8833 6.33333 17.3333 6.33333Z" stroke="#FAFAF9" stroke-width="1.5" stroke-linecap="round" stroke-linejoin="round"/>
<path d="M17.3333 12.5833H14.3333C13.7833 12.5833 13.3333 12.1333 13.3333 11.5833V10.25C13.3333 9.70001 13.7833 9.25 14.3333 9.25H17.3333C17.8833 9.25 18.3333 9.70001 18.3333 10.25V11.5833C18.3333 12.1333 17.8833 12.5833 17.3333 12.5833Z" stroke="#FAFAF9" stroke-width="1.5" stroke-linecap="round" stroke-linejoin="round"/>
<path d="M7.5 4.66666H13.3333" stroke="#FAFAFA" stroke-width="1.5" stroke-miterlimit="10" stroke-linecap="round" stroke-linejoin="round"/>
<path d="M10.4167 4.66666V15.5C10.4167 16.4167 11.1667 17.1667 12.0833 17.1667H13.3333" stroke="#FAFAFA" stroke-width="1.5" stroke-miterlimit="10" stroke-linecap="round" stroke-linejoin="round"/>
<path d="M10.4167 10.9167H13.3333" stroke="#FAFAFA" stroke-width="1.5" stroke-miterlimit="10" stroke-linecap="round" stroke-linejoin="round"/>
<path d="M17.3333 18.8333H14.3333C13.7833 18.8333 13.3333 18.3833 13.3333 17.8333V16.5C13.3333 15.95 13.7833 15.5 14.3333 15.5H17.3333C17.8833 15.5 18.3333 15.95 18.3333 16.5V17.8333C18.3333 18.3833 17.8833 18.8333 17.3333 18.8333Z" stroke="#FAFAFA" stroke-width="1.5" stroke-linecap="round" stroke-linejoin="round"/>
</svg>
