<svg width="20" height="21" viewBox="0 0 20 21" fill="none" xmlns="http://www.w3.org/2000/svg">
<path d="M13.6992 8.53197C13.935 6.86826 12.7349 5.97389 11.094 5.37726L11.6263 3.12356L10.3267 2.78167L9.80847 4.97598C9.46682 4.88612 9.11591 4.80133 8.76722 4.71732L9.28914 2.50856L7.99027 2.16667L7.45761 4.41959C7.17481 4.3516 6.89719 4.2844 6.62772 4.21368L6.6292 4.20665L4.8369 3.73426L4.49117 5.19948C4.49117 5.19948 5.45543 5.43274 5.43507 5.4472C5.96144 5.5859 6.05657 5.95357 6.04065 6.24506L5.43433 8.81251C5.47061 8.82227 5.51762 8.83634 5.56944 8.85822C5.52613 8.84689 5.47986 8.83439 5.43211 8.82227L4.58223 12.4189C4.51783 12.5877 4.35459 12.8409 3.98665 12.7448C3.99961 12.7647 3.04201 12.4959 3.04201 12.4959L2.39683 14.0662L4.08807 14.5112C4.40271 14.5944 4.71105 14.6816 5.01458 14.7636L4.47674 17.0431L5.77488 17.385L6.30753 15.1297C6.66214 15.2313 7.00639 15.3251 7.34323 15.4134L6.81243 17.6581L8.11205 18L8.64989 15.7248C10.866 16.1675 12.5325 15.9889 13.2339 13.8732C13.7991 12.1696 13.2058 11.1869 12.0398 10.5462C12.8889 10.3395 13.5285 9.74986 13.6992 8.53197ZM10.7298 12.9272C10.3282 14.6308 7.61085 13.7098 6.72988 13.4789L7.44354 10.459C8.32452 10.6911 11.1496 11.1506 10.7298 12.9272ZM11.1318 8.50735C10.7653 10.057 8.50367 9.26965 7.77002 9.07664L8.41706 6.33766C9.15071 6.53067 11.5134 6.89092 11.1318 8.50735Z" fill="#FAFAF9"/>
<path d="M3.107 5.757C4.17333 6.39444 5.11187 8.78357 5.11187 8.78357L4.64189 10.77L4.47883 10.9076C3.92139 11.2925 2.57855 11.8494 1.66677 10.9971C0.75498 10.1448 0.770338 9.40915 0.902219 9.17366C1.03412 8.93817 3.03785 9.52526 3.13164 9.13913C3.22546 8.75299 2.52642 8.72113 2.17806 8.55592C1.8297 8.39068 0.174859 7.26988 0.0286323 5.74925C-0.0272709 5.16797 -0.00778359 4.38427 0.145029 4.25922C0.145029 4.25922 2.04068 5.11955 3.107 5.757Z" fill="#FAFAF9"/>
<path d="M16.5898 9.65559C15.3649 9.69677 13.4001 11.3991 13.4001 11.3991C13.5495 11.7349 14.0025 12.6546 13.4579 14.025L13.497 14.1151C13.821 14.7295 14.3747 15.3091 15.5573 15.0018C16.74 14.6945 17.0503 14.0357 17.0373 13.7625C17.0242 13.4893 14.9916 13.0259 15.0785 12.638C15.1655 12.2501 15.7985 12.5649 16.1797 12.5895C16.5609 12.6142 18.5196 12.4338 19.3187 11.1592C19.6242 10.672 19.9521 9.96852 19.8719 9.78282C19.8719 9.78282 17.8146 9.61441 16.5898 9.65559Z" fill="#FAFAF9"/>
</svg>
