<svg width="256" height="256" viewBox="0 0 256 256" fill="none" xmlns="http://www.w3.org/2000/svg">
<g filter="url(#filter0_f_195_1691)">
<circle cx="128" cy="128" r="87.3589" fill="#FFE7C1"/>
</g>
<circle cx="128" cy="128" r="94" fill="#FFF9EF" stroke="#F7C58B" stroke-width="12"/>
<mask id="mask0_195_1691" style="mask-type:alpha" maskUnits="userSpaceOnUse" x="33" y="33" width="190" height="190">
<circle cx="128" cy="128" r="94.1309" fill="white"/>
</mask>
<g mask="url(#mask0_195_1691)">
<path d="M110.619 230.515H129.803L157.324 97.2672L138.93 93.4628L110.619 230.515Z" fill="#F7951E"/>
<path d="M153.508 96.623L157.346 97.3002L153.96 94.8171L153.508 96.623Z" fill="#F7951E"/>
<path d="M107.445 227.91H126.629L153.959 94.8172L135.756 90.8577L107.445 227.91Z" fill="url(#paint0_linear_195_1691)"/>
<path d="M190.07 185.694L74.1715 161.752L70.8894 158.808L83.1427 118.336L88.5211 118.689L80.2276 114.27L84.9708 90.6176L200.869 114.56L204.158 117.51L199.351 140.774L190.168 140.944L195.222 141.911L198.504 144.854L190.07 185.694Z" fill="#F7951E"/>
<path d="M186.787 182.75L70.8894 158.808L79.8606 115.385L85.239 115.738L80.7499 111.073L84.9708 90.6176L200.869 114.56L196.062 137.824L186.886 137.993L195.222 141.911L186.787 182.75Z" fill="url(#paint1_linear_195_1691)"/>
<path d="M189.364 137.753C189.364 137.753 189.272 137.753 189.088 137.753L188.277 137.697L185.157 137.443L182.905 137.245L180.23 136.927C178.317 136.687 176.122 136.462 173.729 136.066L169.953 135.495C168.64 135.29 167.285 135.022 165.881 134.789C163.057 134.309 160.072 133.681 156.924 133.045C150.635 131.711 143.753 130.095 136.567 128.267C122.204 124.568 109.259 121.011 99.8145 118.703C97.4641 118.103 95.3183 117.616 93.462 117.164C91.6056 116.712 89.9328 116.345 88.6341 116.056L85.5849 115.35L84.7943 115.159C84.7026 115.139 84.6128 115.111 84.5261 115.075C84.6192 115.079 84.7115 115.093 84.8014 115.117L85.606 115.265L88.6694 115.879C90.0034 116.148 91.6339 116.493 93.5114 116.924C95.3889 117.355 97.5417 117.82 99.9063 118.399C109.364 120.63 122.331 124.145 136.687 127.836C143.873 129.664 150.74 131.295 157.015 132.65C160.163 133.292 163.142 133.935 165.958 134.429C167.37 134.683 168.718 134.951 170.024 135.135L173.786 135.735C176.179 136.151 178.36 136.398 180.273 136.659L182.941 137.012L185.185 137.245L188.298 137.584L189.103 137.683L189.364 137.753Z" fill="#F7951E" fill-opacity="0.1"/>
<path d="M195.187 134.048C195.096 133.997 195.009 133.94 194.926 133.878L194.22 133.349C193.578 132.89 192.66 132.163 191.397 131.302C187.918 128.861 184.292 126.636 180.541 124.639C174.971 121.696 169.142 119.272 163.128 117.397C155.755 115.132 148.145 113.73 140.45 113.218C132.255 112.618 124.434 113.416 117.312 113.578C113.935 113.698 110.553 113.63 107.184 113.374C99.989 112.782 92.9318 111.065 86.2697 108.285C84.858 107.699 83.8204 107.205 83.1076 106.873L82.3029 106.464L82.0347 106.315C82.1353 106.341 82.2324 106.379 82.3241 106.428L83.1499 106.795C83.8557 107.12 84.9356 107.593 86.3332 108.151C90.2773 109.731 94.3543 110.957 98.5159 111.814C101.386 112.404 104.29 112.814 107.212 113.042C110.569 113.276 113.936 113.33 117.298 113.204C124.399 113.021 132.241 112.209 140.478 112.809C148.207 113.324 155.85 114.746 163.248 117.044C169.278 118.948 175.117 121.41 180.689 124.399C184.436 126.413 188.046 128.672 191.496 131.161C192.717 132.036 193.613 132.791 194.248 133.278L194.954 133.843C195.037 133.905 195.115 133.973 195.187 134.048Z" fill="#F7951E" fill-opacity="0.1"/>
<path d="M139.165 102.927C138.99 103.008 138.808 103.072 138.621 103.118L137.033 103.591C136.327 103.802 135.502 104.035 134.506 104.261C133.511 104.487 132.389 104.798 131.118 105.024C129.848 105.249 128.479 105.553 126.975 105.729C125.472 105.906 123.877 106.153 122.19 106.343C118.516 106.699 114.826 106.842 111.136 106.774C107.447 106.676 103.766 106.372 100.111 105.863C98.4312 105.595 96.836 105.362 95.3538 105.038C93.8715 104.713 92.5304 104.431 91.2529 104.12C89.9753 103.81 88.8883 103.492 87.9072 103.21C86.9261 102.927 86.0862 102.666 85.4085 102.433L83.8416 101.89C83.6572 101.834 83.4778 101.763 83.3052 101.678C83.4973 101.7 83.6866 101.743 83.8698 101.805L85.458 102.271C86.1638 102.483 86.9826 102.73 87.9707 102.977C88.9589 103.224 90.0882 103.562 91.3234 103.824C92.5587 104.085 93.9421 104.424 95.4243 104.685C96.9066 104.946 98.4947 105.214 100.168 105.468C103.806 105.951 107.467 106.241 111.136 106.336C114.809 106.401 118.482 106.269 122.14 105.941C123.82 105.758 125.422 105.609 126.912 105.369C128.401 105.129 129.784 104.925 131.048 104.664C132.311 104.402 133.441 104.177 134.436 103.958C135.431 103.739 136.285 103.541 136.977 103.358L138.579 102.97C138.772 102.934 138.969 102.919 139.165 102.927Z" fill="#F7951E" fill-opacity="0.1"/>
<path d="M108.313 144.332C108.313 144.332 108.496 144.43 108.835 144.642L110.36 145.581C111.701 146.393 113.663 147.635 116.289 149.039C119.453 150.798 122.845 152.111 126.368 152.943C127.431 153.179 128.509 153.344 129.594 153.437C130.729 153.579 131.879 153.33 132.855 152.731C133.328 152.383 133.671 151.886 133.829 151.319C133.982 150.734 133.982 150.119 133.829 149.534C133.459 148.309 132.672 147.253 131.605 146.548C122.768 140.689 110.325 136.419 96.2431 136.024C94.4856 135.967 92.714 135.967 90.907 136.024C89.1001 136.08 87.2649 136.504 86.058 137.845C85.7533 138.161 85.5146 138.535 85.3558 138.945C85.1971 139.354 85.1214 139.792 85.1333 140.231C85.199 141.128 85.5446 141.982 86.1215 142.673C87.2579 144.127 88.8954 145.136 90.4694 146.202C96.8219 150.508 103.549 154.785 111.115 157.749C118.682 160.714 126.721 162.048 134.295 160.926C136.163 160.649 138.005 160.215 139.8 159.627C141.568 159.127 143.154 158.127 144.367 156.747C145.451 155.312 146.025 153.556 145.997 151.757C146.002 149.994 145.612 148.253 144.854 146.661C143.314 143.607 140.953 141.042 138.036 139.257C135.29 137.559 132.31 136.273 129.192 135.438C126.192 134.57 123.22 133.949 120.383 133.321L112.216 131.471L87.5755 125.874L80.8842 124.328L79.1478 123.919C78.7526 123.827 78.5549 123.764 78.5549 123.764L79.1549 123.876L80.9054 124.244L87.6178 125.712L112.287 131.175L120.453 132.996C123.277 133.638 126.269 134.245 129.29 135.113C132.446 135.95 135.462 137.246 138.24 138.96C141.223 140.779 143.639 143.395 145.214 146.513C145.997 148.157 146.402 149.956 146.4 151.778C146.431 153.668 145.83 155.514 144.692 157.022C143.43 158.467 141.778 159.516 139.934 160.043C138.115 160.646 136.247 161.087 134.351 161.363C126.686 162.507 118.548 161.145 110.96 158.173C103.372 155.201 96.5961 150.924 90.2577 146.597C88.6907 145.51 87.025 144.48 85.825 142.948C85.191 142.19 84.8129 141.252 84.7451 140.266C84.7327 139.774 84.818 139.284 84.9961 138.825C85.1742 138.365 85.4415 137.946 85.7827 137.591C86.4361 136.892 87.261 136.376 88.1755 136.094C89.0628 135.827 89.9809 135.675 90.907 135.643C92.7281 135.572 94.5139 135.579 96.2785 135.643C110.445 136.073 122.924 140.379 131.817 146.322C132.937 147.072 133.759 148.191 134.139 149.484C134.305 150.118 134.305 150.784 134.139 151.418C133.966 152.039 133.585 152.582 133.059 152.957C132.032 153.591 130.82 153.857 129.622 153.712C128.523 153.61 127.431 153.438 126.354 153.197C122.818 152.341 119.418 150.996 116.254 149.202C113.628 147.79 111.68 146.506 110.353 145.673C109.703 145.256 109.202 144.967 108.856 144.699C108.511 144.43 108.313 144.332 108.313 144.332Z" fill="#F7951E" fill-opacity="0.1"/>
<path d="M192.935 151.863C192.697 151.837 192.461 151.792 192.23 151.729C191.792 151.609 191.136 151.482 190.296 151.333C187.897 150.99 185.461 151.009 183.068 151.39C179.527 151.986 176.091 153.094 172.869 154.679C168.947 156.68 165.161 158.934 161.533 161.427C157.885 163.934 154.061 166.175 150.091 168.132C146.817 169.692 143.322 170.739 139.73 171.238C137.304 171.564 134.842 171.495 132.438 171.033C131.788 170.904 131.147 170.734 130.518 170.525C130.295 170.465 130.078 170.385 129.869 170.285C130.096 170.32 130.32 170.372 130.54 170.44C130.977 170.567 131.627 170.708 132.467 170.871C134.856 171.261 137.291 171.283 139.687 170.934C143.238 170.399 146.688 169.333 149.922 167.772C153.863 165.803 157.662 163.562 161.293 161.067C164.939 158.563 168.75 156.309 172.699 154.319C175.96 152.73 179.441 151.641 183.026 151.086C185.447 150.728 187.911 150.757 190.324 151.171C190.994 151.282 191.656 151.436 192.307 151.63C192.523 151.688 192.734 151.766 192.935 151.863Z" fill="#F7951E" fill-opacity="0.1"/>
<path d="M190.79 163.354C190.79 163.396 190.239 163.17 189.223 162.945C187.787 162.633 186.306 162.585 184.854 162.803C182.701 163.168 180.605 163.813 178.621 164.723C176.168 165.795 173.793 167.038 171.513 168.443C169.057 169.897 166.714 171.316 164.455 172.396C162.474 173.375 160.388 174.126 158.236 174.633C156.783 174.964 155.294 175.111 153.804 175.071C153.4 175.061 152.997 175.026 152.597 174.965C152.455 174.958 152.315 174.932 152.18 174.887C152.18 174.838 152.766 174.887 153.804 174.887C155.277 174.866 156.743 174.676 158.173 174.323C160.287 173.777 162.336 173.005 164.285 172.022C166.502 170.935 168.824 169.516 171.287 168.055C173.586 166.636 175.988 165.393 178.473 164.335C180.495 163.426 182.632 162.802 184.825 162.479C186.312 162.282 187.822 162.378 189.272 162.761C189.663 162.867 190.047 162.997 190.423 163.149C190.554 163.2 190.677 163.269 190.79 163.354Z" fill="#F7951E" fill-opacity="0.1"/>
<path d="M153.486 104.868C153.486 104.988 149.018 104.113 143.562 102.913C138.106 101.713 133.68 100.647 133.73 100.535C133.779 100.422 138.198 101.29 143.654 102.49C149.11 103.69 153.486 104.755 153.486 104.868Z" fill="#F7951E" fill-opacity="0.1"/>
<path d="M121.378 131.648L117.75 130.857L116.733 135.53L109.993 134.069L111.009 129.389L98.0994 126.566L99.0805 122.063L113.36 109.202L120.517 110.755L107.459 122.867L112.4 123.94L113.303 119.79L119.832 121.201L118.929 125.359L122.557 126.149L121.378 131.648Z" fill="#F7951E"/>
<path d="M124.42 124.413C126.171 116.338 131.718 112.703 137.958 114.058C144.198 115.414 147.699 121.039 145.941 129.1C144.183 137.16 138.636 140.817 132.431 139.461C126.227 138.106 122.663 132.474 124.42 124.413ZM139.003 127.589C140.118 122.465 138.932 120.192 136.737 119.712C134.542 119.232 132.502 120.799 131.358 125.923C130.215 131.048 131.436 133.328 133.667 133.815C135.897 134.302 137.887 132.721 139.003 127.589Z" fill="#F7951E"/>
<path d="M169.721 142.172L166.093 141.381L165.076 146.061L158.328 144.572L159.352 139.892L146.442 137.069L147.423 132.565L161.695 119.705L168.852 121.279L155.802 133.384L160.742 134.464L161.646 130.307L168.168 131.718L167.264 135.869L170.892 136.659L169.721 142.172Z" fill="#F7951E"/>
<path d="M116.211 148.969L115.851 150.501L108.503 148.807L110.797 139.01L117.955 140.682L117.595 142.207L112.266 140.958L111.666 143.506L116.395 144.621L116.049 146.117L111.313 145.009L110.677 147.713L116.211 148.969Z" fill="#F7951E"/>
<path d="M124.3 152.477L122.973 149.138C122.845 149.121 122.717 149.095 122.592 149.061L120.376 148.545L119.705 151.369L117.884 150.945L120.185 141.141L124.215 142.087C126.792 142.694 128.083 144.381 127.575 146.555C127.446 147.234 127.102 147.854 126.593 148.323C126.085 148.792 125.439 149.085 124.752 149.16L126.255 152.908L124.3 152.477ZM123.771 143.64L121.653 143.139L120.736 147.049L122.853 147.543C124.448 147.917 125.451 147.381 125.74 146.131C126.029 144.882 125.366 144.014 123.771 143.64Z" fill="#F7951E"/>
<path d="M134.535 154.877L133.208 151.538C133.079 151.519 132.952 151.493 132.826 151.461L130.617 150.924L129.911 153.783L128.09 153.352L130.384 143.548L134.422 144.494C136.998 145.101 138.283 146.788 137.774 148.962C137.646 149.642 137.302 150.262 136.794 150.732C136.285 151.201 135.639 151.493 134.951 151.566L136.447 155.314L134.535 154.877ZM134.012 146.04L131.895 145.539L130.977 149.449L133.095 149.943C134.69 150.317 135.685 149.781 135.975 148.531C136.264 147.282 135.607 146.414 134.012 146.04Z" fill="#F7951E"/>
<path d="M138.812 150.705C139.518 147.811 142.235 146.195 145.27 146.908C148.305 147.621 150.056 150.275 149.371 153.183C148.687 156.091 145.948 157.7 142.913 156.987C139.878 156.274 138.134 153.606 138.812 150.705ZM147.536 152.752C147.694 152.072 147.647 151.361 147.4 150.708C147.154 150.055 146.719 149.489 146.151 149.083C145.583 148.677 144.908 148.449 144.21 148.427C143.512 148.404 142.824 148.59 142.232 148.959C141.639 149.328 141.17 149.865 140.882 150.501C140.595 151.137 140.503 151.844 140.617 152.533C140.731 153.221 141.048 153.861 141.525 154.37C142.003 154.878 142.621 155.234 143.301 155.392C143.753 155.511 144.224 155.536 144.687 155.466C145.149 155.396 145.591 155.233 145.988 154.985C146.385 154.738 146.726 154.413 146.993 154.029C147.259 153.645 147.444 153.21 147.536 152.752Z" fill="#F7951E"/>
<path d="M156.571 160.044L155.244 156.705L154.856 156.627L152.646 156.112L151.976 158.935L150.155 158.512L152.456 148.708L156.486 149.654C159.062 150.261 160.354 151.948 159.846 154.122C159.716 154.801 159.371 155.42 158.863 155.889C158.355 156.357 157.71 156.651 157.023 156.726L158.526 160.474L156.571 160.044ZM156.041 151.199L153.924 150.705L153.006 154.609L155.124 155.11C156.726 155.484 157.721 154.947 158.011 153.698C158.3 152.449 157.637 151.574 156.041 151.199Z" fill="#F7951E"/>
<path d="M180.572 67.7392C180.922 65.2206 177.346 63.1491 174.652 62.9314C173.374 62.8313 172.042 63.0255 170.828 62.6077C168.2 61.6956 167.152 58.3178 164.589 57.2409C162.67 56.4405 160.445 57.1526 158.603 58.0824C156.762 59.0122 154.909 60.1832 152.832 60.3186C151.056 60.4304 149.061 59.7654 147.504 60.6422C146.32 61.2954 145.728 62.6489 144.627 63.4434C143.526 64.2378 142.176 64.3849 140.862 64.4555C139.547 64.5262 138.18 64.5438 136.978 65.0852C135.776 65.6266 134.788 66.8977 135.036 68.1806L180.572 67.7392Z" fill="#FAFAFA"/>
<path d="M96.1551 84.5777C96.4008 82.7614 93.855 81.269 91.9432 81.1121C91.0304 81.0386 90.0811 81.1789 89.2181 80.8751C87.3428 80.2073 86.596 77.7867 84.7672 77.0088C83.403 76.4312 81.8297 76.9454 80.5054 77.6164C79.181 78.2875 77.87 79.1322 76.3896 79.2257C75.1018 79.3092 73.7045 78.8284 72.5793 79.4628C71.7395 79.9335 71.3014 80.9051 70.528 81.466C69.7547 82.0269 68.7822 82.1337 67.8428 82.1972C66.9035 82.2606 65.931 82.2606 65.078 82.6546C64.225 83.0486 63.5147 83.9567 63.6939 84.8849L96.1551 84.5777Z" fill="#F7951E"/>
</g>
<defs>
<filter id="filter0_f_195_1691" x="0.641113" y="0.641083" width="254.718" height="254.718" filterUnits="userSpaceOnUse" color-interpolation-filters="sRGB">
<feFlood flood-opacity="0" result="BackgroundImageFix"/>
<feBlend mode="normal" in="SourceGraphic" in2="BackgroundImageFix" result="shape"/>
<feGaussianBlur stdDeviation="20" result="effect1_foregroundBlur_195_1691"/>
</filter>
<linearGradient id="paint0_linear_195_1691" x1="130.797" y1="90.8577" x2="130.797" y2="227.91" gradientUnits="userSpaceOnUse">
<stop stop-color="#F7C58B"/>
<stop offset="1" stop-color="#F4C27F"/>
</linearGradient>
<linearGradient id="paint1_linear_195_1691" x1="135.879" y1="90.6176" x2="135.879" y2="182.75" gradientUnits="userSpaceOnUse">
<stop stop-color="#FFE1B5"/>
<stop offset="1" stop-color="#F4BE7F"/>
</linearGradient>
</defs>
</svg>
