<svg width="26" height="24" viewBox="0 0 26 24" fill="none" xmlns="http://www.w3.org/2000/svg">
<path d="M9.53346 8.22728L14.6547 3.18485C15.1668 2.68061 15.1668 1.86607 14.6547 1.36182C14.1425 0.857582 13.2759 0.857582 12.8032 1.36182L7.68194 6.44304C7.16982 6.94728 7.16982 7.80061 7.68194 8.26607C8.15467 8.73152 9.02134 8.77031 9.53346 8.22728Z" fill="#71717A"/>
<path d="M14.1425 14.6273C14.6546 15.1315 15.4819 15.1315 15.994 14.6273L21.1546 9.54606C21.6667 9.04182 21.6667 8.22727 21.1546 7.72303C20.6425 7.21879 19.7758 7.21879 19.3031 7.72303L14.1819 12.8042C13.591 13.3085 13.6304 14.123 14.1425 14.6273Z" fill="#71717A"/>
<path d="M10.0457 8.84788L13.5517 12.3C13.5517 12.2612 13.5911 12.2612 13.5911 12.2612L18.7123 7.21878L18.7517 7.18L15.2457 3.72787L15.2063 3.76666L10.085 8.80909C10.085 8.80909 10.0457 8.80909 10.0457 8.84788Z" fill="#71717A"/>
<path d="M10.2819 10.1667L0.945539 18.8552C0.236448 19.5146 0.236448 20.6006 0.906145 21.26C1.61524 21.9582 2.71827 21.9194 3.34857 21.2212L12.1728 11.9897L10.2819 10.1667Z" fill="#71717A"/>
<path d="M13.0001 19.2043V19.9024H12.4486C11.8183 19.9024 11.3062 20.4067 11.3062 21.0273V22.0358H24.8183V21.0273C24.8183 20.4067 24.3062 19.9024 23.6758 19.9024H23.1243V19.2043C23.1243 18.5836 22.6122 18.0794 21.9819 18.0794H14.1425C13.5122 18.0794 13.0001 18.5836 13.0001 19.2043Z" fill="#71717A"/>
<path d="M25.2122 22.8503H10.8334C10.597 22.8503 10.4395 23.0055 10.4395 23.2382C10.4395 23.4709 10.597 23.6261 10.8334 23.6261H25.2122C25.4485 23.6261 25.6061 23.4709 25.6061 23.2382C25.6061 23.0055 25.4485 22.8503 25.2122 22.8503Z" fill="#71717A"/>
</svg>
